<svg xmlns="http://www.w3.org/2000/svg" xmlns:xlink="http://www.w3.org/1999/xlink" version="1.1" x="0px" y="0px" viewBox="0 0 100 125" enable-background="new 0 0 100 100" xml:space="preserve"><g><path d="M63.4,94.8h24c3.9,0,7-3.2,7-7v-1.2V73.5V42.5v-4v-2.1c0-3.9-3.2-7-7-7h-24c-3.9,0-7,3.2-7,7v2.1v47.9v1.2   C56.4,91.6,59.6,94.8,63.4,94.8z M75.4,92.8c-1.5,0-2.8-1.2-2.8-2.8s1.2-2.8,2.8-2.8c1.5,0,2.8,1.2,2.8,2.8S77,92.8,75.4,92.8z    M61.8,39.1c0,0,0.1,0,0.1,0h27c0,0,0.1,0,0.1,0v46.2c0,0-0.1,0-0.1,0H62c-0.1,0-0.1,0-0.1,0V39.1z M12.2,15c0.1,0,0.2,0,0.2,0   h49.6c0.1,0,0.2,0,0.3,0v9.2c0.4,0,0.7-0.1,1.1-0.1h5.6V13.5h0l0-1c0-3-1.8-5.6-4.4-6.6c-0.9-0.4-1.8-0.6-2.8-0.6l-24.5,0l-24.5,0   c-1,0-1.9,0.2-2.8,0.6c-2.6,1.1-4.4,3.7-4.4,6.6v1.3v65l0,8.8c0,4,3.2,7.2,7.2,7.2l12.7,0c0,0,0,0,0,0l11.9,0l11.8,0c0,0,0,0,0,0   l4.1,0c-1.4-2-2.2-4.4-2.2-7v-4.2H46H12.5c-0.1,0-0.2,0-0.3,0L12.2,15C12.2,15,12.2,15,12.2,15z M37.3,86.6c1.5,0,2.8,1.2,2.8,2.8   s-1.2,2.8-2.8,2.8c-1.5,0-2.8-1.2-2.8-2.8S35.8,86.6,37.3,86.6z"/></g><text x="0" y="115" fill="#000000" font-size="5px" font-weight="bold" font-family="'Helvetica Neue', Helvetica, Arial-Unicode, Arial, Sans-serif">Created by Gregor Črešnar</text><text x="0" y="120" fill="#000000" font-size="5px" font-weight="bold" font-family="'Helvetica Neue', Helvetica, Arial-Unicode, Arial, Sans-serif">from the Noun Project</text></svg>