<?xml version="1.0" encoding="utf-8"?><!DOCTYPE svg PUBLIC "-//W3C//DTD SVG 1.1//EN" "http://www.w3.org/Graphics/SVG/1.1/DTD/svg11.dtd"><svg version="1.1" xmlns="http://www.w3.org/2000/svg" xmlns:xlink="http://www.w3.org/1999/xlink" x="0px" y="0px" viewBox="-0.063 5.636 100 82.5" enable-background="new -0.063 5.636 100 66" xml:space="preserve"><path d="M84.933,5.636H14.938c-1.659,0-3.001,1.342-3.001,3.001v0.998v41.003c0,1.655,1.342,3.001,3.001,3.001h1.001h68.003h0.99
	c1.655,0,3.001-1.346,3.001-3.001V9.635V8.637C87.934,6.978,86.595,5.636,84.933,5.636z M83.942,49.632H15.939V9.635h68.003V49.632z
	"/><path d="M88.041,55.65c-0.603-0.557-1.778-1.014-2.599-1.014H14.435c-0.824,0-1.992,0.457-2.595,1.014L-0.063,66.632v2.003
	c0,0,0,3.001,3.001,3.001h93.998c3.001,0,3.001-3.001,3.001-3.001v-2.003L88.041,55.65z M36.798,62.007h26.277l2.026,3.264h-30.33
	L36.798,62.007z M56.935,67.638c0,0.549-0.449,0.997-0.998,0.997h-12c-0.553,0-0.998-0.448-0.998-0.997v-1.006h13.995V67.638z"/><text x="-0.063" y="86.636" fill="#000000" font-size="5px" font-weight="bold" font-family="'Helvetica Neue', Helvetica, Arial-Unicode, Arial, Sans-serif">Created by B. Agustín Amenábar Larraín</text><text x="-0.063" y="91.636" fill="#000000" font-size="5px" font-weight="bold" font-family="'Helvetica Neue', Helvetica, Arial-Unicode, Arial, Sans-serif">from the Noun Project</text></svg>