<svg xmlns="http://www.w3.org/2000/svg" xmlns:xlink="http://www.w3.org/1999/xlink" version="1.1" x="0px" y="0px" viewBox="0 0 100 125" enable-background="new 0 0 100 100" xml:space="preserve"><g><rect x="40.219" y="42.128" width="0.969" height="6.109"/><polygon points="94.295,48.237 93.591,41.423 41.364,41.423 41.364,48.237 90.771,48.237  "/><polygon points="9.23,48.473 9.23,51.293 90.77,51.293 90.77,48.473 41.364,48.473 41.187,48.473 40.218,48.473 40.042,48.473  "/><polygon points="5.47,51.527 5,58.577 40.043,58.577 40.043,51.527 9.23,51.527  "/><rect x="40.219" y="51.527" width="0.969" height="7.05"/><polygon points="94.316,51.527 41.364,51.527 41.364,58.577 95,58.577  "/><path d="M12.979,45.347c0.139,0,0.268-0.047,0.357-0.137c0.09-0.089,0.132-0.198,0.132-0.332c0-0.128-0.045-0.247-0.132-0.332   c-0.088-0.088-0.221-0.137-0.357-0.137c-0.138,0-0.27,0.048-0.358,0.137c-0.085,0.085-0.131,0.204-0.131,0.332   c0,0.127,0.045,0.247,0.131,0.332C12.71,45.298,12.842,45.347,12.979,45.347z"/></g><rect x="5" y="41.423" fill="none" width="90" height="17.154"/><polygon points="6.411,41.423 5.94,48.237 9.23,48.237 40.042,48.237 40.042,41.423 "/><text x="0" y="115" fill="#000000" font-size="5px" font-weight="bold" font-family="'Helvetica Neue', Helvetica, Arial-Unicode, Arial, Sans-serif">Created by Chris Tucker</text><text x="0" y="120" fill="#000000" font-size="5px" font-weight="bold" font-family="'Helvetica Neue', Helvetica, Arial-Unicode, Arial, Sans-serif">from the Noun Project</text></svg>