<svg xmlns="http://www.w3.org/2000/svg" xmlns:xlink="http://www.w3.org/1999/xlink" version="1.1" x="0px" y="0px" viewBox="0 0 100 125" enable-background="new 0 0 100 100" xml:space="preserve"><rect x="5" y="40.01" fill="none" width="90" height="19.979"/><g><path d="M50.11,57.109h-0.046v-17.1H5.433L5,40.946v6.242v0.371c0,0,0.062,0.391,0.927,0.391v0.011h44v2.101H5.847   C5.588,50.189,5,50.458,5,51.045v4.732c0,0.99,0.68,1.791,0.68,1.791l1.668,2.421h85.589l1.668-2.667l0.15-0.213H50.284H50.11z"/><rect x="10.994" y="48.424" width="33.803" height="1.236"/></g><g><circle cx="85.297" cy="49.031" r="2.016"/><path d="M94.605,40.01H50.284v16.883h44.628L95,56.768V41.255C95,40.452,94.605,40.01,94.605,40.01z M85.297,51.297   c-1.249,0-2.266-1.016-2.266-2.266s1.017-2.266,2.266-2.266s2.266,1.016,2.266,2.266S86.546,51.297,85.297,51.297z"/></g><text x="0" y="115" fill="#000000" font-size="5px" font-weight="bold" font-family="'Helvetica Neue', Helvetica, Arial-Unicode, Arial, Sans-serif">Created by Chris Tucker</text><text x="0" y="120" fill="#000000" font-size="5px" font-weight="bold" font-family="'Helvetica Neue', Helvetica, Arial-Unicode, Arial, Sans-serif">from the Noun Project</text></svg>